<svg xmlns="http://www.w3.org/2000/svg" viewBox="0 0 32 32">
  <rect width="32" height="32" rx="8" fill="#ffffff"/>
  <circle cx="16" cy="16" r="14" fill="#6366f1" fill-opacity="0.1"/>
  <path d="M18 4L8 18h8l-2 10 10-14h-8l2-10z" fill="#7c3aed"/>
  <path d="M16 14.5c0-.8-.7-1.5-1.5-1.5s-1.5.7-1.5 1.5c0 .4.2.8.5 1.1l1 .9 1-.9c.3-.3.5-.7.5-1.1z" fill="#10b981" transform="scale(1.5) translate(-4, -2)"/>
  <path d="M22 22a3 3 0 0 1-3 3 3 3 0 0 1-3-3" fill="none" stroke="#10b981" stroke-width="2" stroke-linecap="round"/>
</svg>
